<svg version="1.1" viewBox="0.0 0.0 960.0 540.0" fill="none" stroke="none" stroke-linecap="square" stroke-miterlimit="10" xmlns:xlink="http://www.w3.org/1999/xlink" xmlns="http://www.w3.org/2000/svg"><clipPath id="p.0"><path d="m0 0l960.0 0l0 540.0l-960.0 0l0 -540.0z" clip-rule="nonzero"/></clipPath><g clip-path="url(#p.0)"><path fill="#ffffff" d="m0 0l960.0 0l0 540.0l-960.0 0z" fill-rule="evenodd"/><path fill="#000000" fill-opacity="0.0" d="m253.63387 137.96588l69.6693 0l0 81.32283l-69.6693 0z" fill-rule="evenodd"/><path fill="#000000" d="m322.5401 166.03088l0 1.15625q-1.65625 0 -2.6875 0.59375q-1.03125 0.59375 -1.96875 2.21875q-0.625 1.09375 -1.96875 5.21875l-11.8125 34.15625l-1.25 0l-9.65625 -27.09375l-9.59375 27.09375l-1.125 0l-12.59375 -35.1875q-1.40625 -3.9375 -1.78125 -4.65625q-0.625 -1.1875 -1.703125 -1.765625q-1.078125 -0.578125 -2.921875 -0.578125l0 -1.15625l15.6875 0l0 1.15625l-0.75 0q-1.65625 0 -2.53125 0.75q-0.875 0.75 -0.875 1.8125q0 1.09375 1.375 5.03125l8.34375 23.78125l7.03125 -20.21875l-1.25 -3.5625l-1.0 -2.84375q-0.65625 -1.5625 -1.46875 -2.75q-0.40625 -0.59375 -1.0 -1.0q-0.78125 -0.5625 -1.5625 -0.8125q-0.59375 -0.1875 -1.875 -0.1875l0 -1.15625l16.5 0l0 1.15625l-1.125 0q-1.75 0 -2.5625 0.75q-0.8125 0.75 -0.8125 2.03125q0 1.59375 1.40625 5.5625l8.125 23.03125l8.0625 -23.34375q1.375 -3.875 1.375 -5.375q0 -0.71875 -0.453125 -1.34375q-0.453125 -0.625 -1.140625 -0.875q-1.1875 -0.4375 -3.09375 -0.4375l0 -1.15625l12.65625 0z" fill-rule="nonzero"/><path fill="#000000" fill-opacity="0.0" d="m260.5761 229.33858l69.66928 0l0 81.32283l-69.66928 0z" fill-rule="evenodd"/><path fill="#6aa84f" d="m282.73236 277.05984l19.6875 0l0 -12.125q0 -3.25 -0.40625 -4.28125q-0.3125 -0.78125 -1.3125 -1.34375q-1.34375 -0.75 -2.84375 -0.75l-1.5 0l0 -1.15625l18.125 0l0 1.15625l-1.5 0q-1.5 0 -2.84375 0.71875q-1.0 0.5 -1.359375 1.515625q-0.359375 1.015625 -0.359375 4.140625l0 27.34375q0 3.21875 0.40625 4.25q0.3125 0.78125 1.28125 1.34375q1.375 0.75 2.875 0.75l1.5 0l0 1.15625l-18.125 0l0 -1.15625l1.5 0q2.59375 0 3.78125 -1.53125q0.78125 -1.0 0.78125 -4.8125l0 -12.90625l-19.6875 0l0 12.90625q0 3.21875 0.40625 4.25q0.3125 0.78125 1.3125 1.34375q1.34375 0.75 2.84375 0.75l1.53125 0l0 1.15625l-18.15625 0l0 -1.15625l1.5 0q2.625 0 3.8125 -1.53125q0.75 -1.0 0.75 -4.8125l0 -27.34375q0 -3.25 -0.40625 -4.28125q-0.3125 -0.78125 -1.28125 -1.34375q-1.375 -0.75 -2.875 -0.75l-1.5 0l0 -1.15625l18.15625 0l0 1.15625l-1.53125 0q-1.5 0 -2.84375 0.71875q-0.96875 0.5 -1.34375 1.515625q-0.375 1.015625 -0.375 4.140625l0 12.125z" fill-rule="nonzero"/><path fill="#000000" fill-opacity="0.0" d="m260.5761 320.71127l69.66928 0l0 81.322845l-69.66928 0z" fill-rule="evenodd"/><path fill="#e69138" d="m300.0761 348.77628l14.78125 0l0 1.15625l-0.8125 0q-0.8125 0 -2.375 0.71875q-1.5625 0.71875 -2.84375 2.0625q-1.28125 1.34375 -3.15625 4.375l-10.21875 16.09375l0 10.625q0 3.90625 0.875 4.875q1.1875 1.3125 3.75 1.3125l1.375 0l0 1.15625l-18.0 0l0 -1.15625l1.5 0q2.6875 0 3.8125 -1.625q0.6875 -1.0 0.6875 -4.5625l0 -10.03125l-11.625 -17.75q-2.0625 -3.125 -2.796875 -3.90625q-0.734375 -0.78125 -3.046875 -1.875q-0.625 -0.3125 -1.8125 -0.3125l0 -1.15625l18.125 0l0 1.15625l-0.9375 0q-1.46875 0 -2.703125 0.6875q-1.234375 0.6875 -1.234375 2.0625q0 1.125 1.90625 4.0625l8.84375 13.65625l8.3125 -13.0625q1.875 -2.9375 1.875 -4.375q0 -0.875 -0.453125 -1.5625q-0.453125 -0.6875 -1.296875 -1.078125q-0.84375 -0.390625 -2.53125 -0.390625l0 -1.15625z" fill-rule="nonzero"/><path fill="#000000" fill-opacity="0.0" d="m368.66534 145.52493l337.7008 0l0 66.20473l-337.7008 0z" fill-rule="evenodd"/><path fill="#000000" d="m402.61847 162.46869l0 0.484375q-0.6875 0 -1.125 0.25q-0.421875 0.25 -0.8125 0.921875q-0.265625 0.453125 -0.828125 2.171875l-4.921875 14.234375l-0.515625 0l-4.015625 -11.28125l-4.0 11.28125l-0.46875 0l-5.25 -14.65625q-0.578125 -1.640625 -0.734375 -1.9375q-0.265625 -0.5 -0.71875 -0.734375q-0.4375 -0.25 -1.21875 -0.25l0 -0.484375l6.546875 0l0 0.484375l-0.3125 0q-0.6875 0 -1.0625 0.3125q-0.359375 0.3125 -0.359375 0.765625q0 0.453125 0.578125 2.09375l3.46875 9.90625l2.921875 -8.421875l-0.515625 -1.484375l-0.421875 -1.1875q-0.265625 -0.65625 -0.609375 -1.140625q-0.171875 -0.25 -0.40625 -0.421875q-0.328125 -0.234375 -0.65625 -0.34375q-0.25 -0.078125 -0.78125 -0.078125l0 -0.484375l6.875 0l0 0.484375l-0.46875 0q-0.734375 0 -1.078125 0.3125q-0.328125 0.3125 -0.328125 0.84375q0 0.671875 0.578125 2.328125l3.390625 9.59375l3.359375 -9.734375q0.5625 -1.609375 0.5625 -2.234375q0 -0.296875 -0.1875 -0.546875q-0.1875 -0.265625 -0.46875 -0.375q-0.5 -0.1875 -1.28125 -0.1875l0 -0.484375l5.265625 0zm4.5344543 -0.859375l0 8.734375q1.453125 -1.59375 2.296875 -2.046875q0.84375 -0.453125 1.6875 -0.453125q1.015625 0 1.75 0.5625q0.734375 0.5625 1.078125 1.765625q0.25 0.828125 0.25 3.046875l0 4.21875q0 1.125 0.1875 1.546875q0.125 0.3125 0.4375 0.5q0.3125 0.171875 1.140625 0.171875l0 0.46875l-5.859375 0l0 -0.46875l0.28125 0q0.828125 0 1.15625 -0.25q0.328125 -0.25 0.453125 -0.75q0.046875 -0.203125 0.046875 -1.21875l0 -4.21875q0 -1.953125 -0.203125 -2.5625q-0.203125 -0.625 -0.65625 -0.921875q-0.4375 -0.3125 -1.0625 -0.3125q-0.640625 0 -1.328125 0.34375q-0.6875 0.34375 -1.65625 1.359375l0 6.3125q0 1.21875 0.140625 1.515625q0.140625 0.296875 0.5 0.5q0.375 0.203125 1.296875 0.203125l0 0.46875l-5.921875 0l0 -0.46875q0.796875 0 1.25 -0.25q0.265625 -0.125 0.421875 -0.484375q0.15625 -0.375 0.15625 -1.484375l0 -10.796875q0 -2.046875 -0.09375 -2.515625q-0.09375 -0.46875 -0.296875 -0.625q-0.203125 -0.171875 -0.546875 -0.171875q-0.265625 0 -0.890625 0.203125l-0.171875 -0.453125l3.5625 -1.46875l0.59375 0zm9.15625 6.59375l5.5625 0l0 0.484375l-0.28125 0q-0.578125 0 -0.875 0.25q-0.296875 0.25 -0.296875 0.625q0 0.515625 0.4375 1.40625l2.890625 6.015625l2.671875 -6.578125q0.21875 -0.53125 0.21875 -1.0625q0 -0.234375 -0.078125 -0.34375q-0.109375 -0.140625 -0.328125 -0.21875q-0.21875 -0.09375 -0.78125 -0.09375l0 -0.484375l3.875 0l0 0.484375q-0.484375 0.046875 -0.75 0.203125q-0.25 0.15625 -0.5625 0.59375q-0.125 0.171875 -0.4375 1.0l-4.859375 11.890625q-0.703125 1.734375 -1.84375 2.609375q-1.140625 0.890625 -2.1875 0.890625q-0.78125 0 -1.28125 -0.4375q-0.484375 -0.4375 -0.484375 -1.015625q0 -0.546875 0.359375 -0.890625q0.359375 -0.328125 0.984375 -0.328125q0.421875 0 1.171875 0.296875q0.515625 0.1875 0.65625 0.1875q0.390625 0 0.84375 -0.40625q0.46875 -0.390625 0.9375 -1.5625l0.84375 -2.0625l-4.28125 -9.0q-0.203125 -0.390625 -0.625 -1.0q-0.328125 -0.453125 -0.53125 -0.609375q-0.3125 -0.203125 -0.96875 -0.359375l0 -0.484375zm28.367188 -0.359375l0 4.0625l-0.421875 0q-0.5 -1.90625 -1.28125 -2.59375q-0.765625 -0.6875 -1.953125 -0.6875q-0.921875 0 -1.484375 0.484375q-0.546875 0.46875 -0.546875 1.0625q0 0.71875 0.40625 1.25q0.40625 0.53125 1.640625 1.125l1.90625 0.921875q2.640625 1.296875 2.640625 3.40625q0 1.625 -1.234375 2.625q-1.234375 0.984375 -2.75 0.984375q-1.09375 0 -2.5 -0.390625q-0.421875 -0.125 -0.703125 -0.125q-0.296875 0 -0.46875 0.34375l-0.421875 0l0 -4.265625l0.421875 0q0.359375 1.828125 1.390625 2.75q1.03125 0.921875 2.3125 0.921875q0.890625 0 1.453125 -0.515625q0.578125 -0.53125 0.578125 -1.28125q0 -0.890625 -0.640625 -1.5q-0.625 -0.625 -2.515625 -1.5625q-1.890625 -0.9375 -2.46875 -1.6875q-0.59375 -0.734375 -0.59375 -1.875q0 -1.46875 1.0 -2.453125q1.015625 -1.0 2.625 -1.0q0.703125 0 1.703125 0.3125q0.65625 0.1875 0.890625 0.1875q0.203125 0 0.3125 -0.09375q0.125 -0.09375 0.28125 -0.40625l0.421875 0zm8.51416 0q2.703125 0 4.34375 2.0625q1.390625 1.765625 1.390625 4.03125q0 1.609375 -0.765625 3.25q-0.765625 1.640625 -2.125 2.46875q-1.34375 0.828125 -3.0 0.828125q-2.6875 0 -4.28125 -2.140625q-1.34375 -1.8125 -1.34375 -4.0625q0 -1.640625 0.8125 -3.25q0.828125 -1.625 2.15625 -2.40625q1.328125 -0.78125 2.8125 -0.78125zm-0.40625 0.859375q-0.6875 0 -1.390625 0.40625q-0.703125 0.40625 -1.140625 1.4375q-0.421875 1.03125 -0.421875 2.640625q0 2.609375 1.03125 4.5q1.046875 1.875 2.734375 1.875q1.265625 0 2.078125 -1.03125q0.828125 -1.046875 0.828125 -3.59375q0 -3.171875 -1.375 -4.984375q-0.921875 -1.25 -2.34375 -1.25zm11.4375 1.6875q1.296875 -1.296875 1.53125 -1.5q0.59375 -0.5 1.265625 -0.765625q0.671875 -0.28125 1.34375 -0.28125q1.109375 0 1.921875 0.65625q0.8125 0.65625 1.078125 1.890625q1.34375 -1.5625 2.265625 -2.046875q0.921875 -0.5 1.90625 -0.5q0.953125 0 1.6875 0.5q0.734375 0.484375 1.15625 1.59375q0.296875 0.75 0.296875 2.359375l0 5.140625q0 1.109375 0.15625 1.53125q0.140625 0.28125 0.484375 0.484375q0.359375 0.203125 1.140625 0.203125l0 0.46875l-5.875 0l0 -0.46875l0.25 0q0.765625 0 1.1875 -0.296875q0.3125 -0.203125 0.4375 -0.671875q0.046875 -0.21875 0.046875 -1.25l0 -5.140625q0 -1.453125 -0.34375 -2.046875q-0.515625 -0.84375 -1.625 -0.84375q-0.703125 0 -1.40625 0.359375q-0.6875 0.34375 -1.671875 1.28125l-0.03125 0.140625l0.03125 0.5625l0 5.6875q0 1.21875 0.140625 1.515625q0.140625 0.296875 0.515625 0.5q0.375 0.203125 1.28125 0.203125l0 0.46875l-6.03125 0l0 -0.46875q1.0 0 1.359375 -0.234375q0.375 -0.234375 0.515625 -0.703125q0.078125 -0.21875 0.078125 -1.28125l0 -5.140625q0 -1.453125 -0.4375 -2.09375q-0.578125 -0.828125 -1.59375 -0.828125q-0.703125 0 -1.390625 0.375q-1.09375 0.578125 -1.671875 1.296875l0 6.390625q0 1.171875 0.15625 1.53125q0.171875 0.34375 0.484375 0.515625q0.328125 0.171875 1.296875 0.171875l0 0.46875l-5.890625 0l0 -0.46875q0.8125 0 1.140625 -0.171875q0.328125 -0.171875 0.484375 -0.5625q0.171875 -0.390625 0.171875 -1.484375l0 -4.5625q0 -1.96875 -0.109375 -2.53125q-0.09375 -0.4375 -0.296875 -0.59375q-0.1875 -0.171875 -0.53125 -0.171875q-0.359375 0 -0.859375 0.203125l-0.203125 -0.46875l3.59375 -1.46875l0.5625 0l0 2.546875zm19.20285 2.296875q-0.015625 2.65625 1.28125 4.171875q1.296875 1.515625 3.0625 1.515625q1.171875 0 2.03125 -0.640625q0.875 -0.65625 1.453125 -2.21875l0.40625 0.265625q-0.28125 1.78125 -1.59375 3.25q-1.3125 1.453125 -3.28125 1.453125q-2.15625 0 -3.6875 -1.671875q-1.53125 -1.671875 -1.53125 -4.5q0 -3.046875 1.5625 -4.75q1.578125 -1.71875 3.953125 -1.71875q2.0 0 3.28125 1.328125q1.296875 1.3125 1.296875 3.515625l-8.234375 0zm0 -0.75l5.515625 0q-0.0625 -1.140625 -0.28125 -1.609375q-0.328125 -0.734375 -0.96875 -1.140625q-0.640625 -0.421875 -1.34375 -0.421875q-1.078125 0 -1.9375 0.84375q-0.84375 0.828125 -0.984375 2.328125zm15.659424 -4.09375q2.703125 0 4.34375 2.0625q1.390625 1.765625 1.390625 4.03125q0 1.609375 -0.765625 3.25q-0.765625 1.640625 -2.125 2.46875q-1.34375 0.828125 -3.0 0.828125q-2.6875 0 -4.28125 -2.140625q-1.34375 -1.8125 -1.34375 -4.0625q0 -1.640625 0.8125 -3.25q0.828125 -1.625 2.15625 -2.40625q1.328125 -0.78125 2.8125 -0.78125zm-0.40625 0.859375q-0.6875 0 -1.390625 0.40625q-0.703125 0.40625 -1.140625 1.4375q-0.421875 1.03125 -0.421875 2.640625q0 2.609375 1.03125 4.5q1.046875 1.875 2.734375 1.875q1.265625 0 2.078125 -1.03125q0.828125 -1.046875 0.828125 -3.59375q0 -3.171875 -1.375 -4.984375q-0.921875 -1.25 -2.34375 -1.25zm11.375 1.671875q2.09375 -2.53125 3.984375 -2.53125q0.984375 0 1.6875 0.5q0.703125 0.484375 1.125 1.609375q0.28125 0.78125 0.28125 2.390625l0 5.09375q0 1.125 0.1875 1.53125q0.140625 0.328125 0.453125 0.515625q0.328125 0.171875 1.1875 0.171875l0 0.46875l-5.90625 0l0 -0.46875l0.25 0q0.828125 0 1.15625 -0.25q0.34375 -0.25 0.46875 -0.75q0.046875 -0.203125 0.046875 -1.21875l0 -4.890625q0 -1.625 -0.421875 -2.359375q-0.421875 -0.734375 -1.421875 -0.734375q-1.546875 0 -3.078125 1.6875l0 6.296875q0 1.203125 0.140625 1.484375q0.1875 0.390625 0.5 0.5625q0.3125 0.171875 1.296875 0.171875l0 0.46875l-5.90625 0l0 -0.46875l0.265625 0q0.90625 0 1.21875 -0.453125q0.328125 -0.46875 0.328125 -1.765625l0 -4.4375q0 -2.140625 -0.09375 -2.609375q-0.09375 -0.46875 -0.296875 -0.640625q-0.203125 -0.171875 -0.546875 -0.171875q-0.359375 0 -0.875 0.203125l-0.1875 -0.46875l3.59375 -1.46875l0.5625 0l0 2.53125zm11.859375 2.3125q-0.015625 2.65625 1.28125 4.171875q1.296875 1.515625 3.0625 1.515625q1.171875 0 2.03125 -0.640625q0.875 -0.65625 1.453125 -2.21875l0.40625 0.265625q-0.28125 1.78125 -1.59375 3.25q-1.3125 1.453125 -3.28125 1.453125q-2.15625 0 -3.6875 -1.671875q-1.53125 -1.671875 -1.53125 -4.5q0 -3.046875 1.5625 -4.75q1.578125 -1.71875 3.953125 -1.71875q2.0 0 3.28125 1.328125q1.296875 1.3125 1.296875 3.515625l-8.234375 0zm0 -0.75l5.515625 0q-0.0625 -1.140625 -0.28125 -1.609375q-0.328125 -0.734375 -0.96875 -1.140625q-0.640625 -0.421875 -1.34375 -0.421875q-1.078125 0 -1.9375 0.84375q-0.84375 0.828125 -0.984375 2.328125zm26.604736 3.65625q-0.46875 2.359375 -1.875 3.625q-1.40625 1.265625 -3.109375 1.265625q-2.03125 0 -3.546875 -1.703125q-1.515625 -1.703125 -1.515625 -4.609375q0 -2.8125 1.671875 -4.5625q1.671875 -1.765625 4.015625 -1.765625q1.765625 0 2.890625 0.9375q1.140625 0.9375 1.140625 1.9375q0 0.484375 -0.328125 0.796875q-0.3125 0.3125 -0.890625 0.3125q-0.765625 0 -1.15625 -0.5q-0.21875 -0.28125 -0.296875 -1.046875q-0.0625 -0.765625 -0.515625 -1.171875q-0.46875 -0.390625 -1.265625 -0.390625q-1.296875 0 -2.09375 0.96875q-1.0625 1.28125 -1.0625 3.375q0 2.125 1.046875 3.765625q1.046875 1.625 2.828125 1.625q1.28125 0 2.296875 -0.859375q0.71875 -0.609375 1.390625 -2.1875l0.375 0.1875zm5.20636 -13.984375l0 8.734375q1.453125 -1.59375 2.296875 -2.046875q0.84375 -0.453125 1.6875 -0.453125q1.015625 0 1.75 0.5625q0.734375 0.5625 1.078125 1.765625q0.25 0.828125 0.25 3.046875l0 4.21875q0 1.125 0.1875 1.546875q0.125 0.3125 0.4375 0.5q0.3125 0.171875 1.140625 0.171875l0 0.46875l-5.859375 0l0 -0.46875l0.28125 0q0.828125 0 1.15625 -0.25q0.328125 -0.25 0.453125 -0.75q0.046875 -0.203125 0.046875 -1.21875l0 -4.21875q0 -1.953125 -0.203125 -2.5625q-0.203125 -0.625 -0.65625 -0.921875q-0.4375 -0.3125 -1.0625 -0.3125q-0.640625 0 -1.328125 0.34375q-0.6875 0.34375 -1.65625 1.359375l0 6.3125q0 1.21875 0.140625 1.515625q0.140625 0.296875 0.5 0.5q0.375 0.203125 1.296875 0.203125l0 0.46875l-5.921875 0l0 -0.46875q0.796875 0 1.25 -0.25q0.265625 -0.125 0.421875 -0.484375q0.15625 -0.375 0.15625 -1.484375l0 -10.796875q0 -2.046875 -0.09375 -2.515625q-0.09375 -0.46875 -0.296875 -0.625q-0.203125 -0.171875 -0.546875 -0.171875q-0.265625 0 -0.890625 0.203125l-0.171875 -0.453125l3.5625 -1.46875l0.59375 0zm15.671875 6.234375q2.703125 0 4.34375 2.0625q1.390625 1.765625 1.390625 4.03125q0 1.609375 -0.765625 3.25q-0.765625 1.640625 -2.125 2.46875q-1.34375 0.828125 -3.0 0.828125q-2.6875 0 -4.28125 -2.140625q-1.34375 -1.8125 -1.34375 -4.0625q0 -1.640625 0.8125 -3.25q0.828125 -1.625 2.15625 -2.40625q1.328125 -0.78125 2.8125 -0.78125zm-0.40625 0.859375q-0.6875 0 -1.390625 0.40625q-0.703125 0.40625 -1.140625 1.4375q-0.421875 1.03125 -0.421875 2.640625q0 2.609375 1.03125 4.5q1.046875 1.875 2.734375 1.875q1.265625 0 2.078125 -1.03125q0.828125 -1.046875 0.828125 -3.59375q0 -3.171875 -1.375 -4.984375q-0.921875 -1.25 -2.34375 -1.25zm15.59375 -0.859375l0 4.0625l-0.421875 0q-0.5 -1.90625 -1.28125 -2.59375q-0.765625 -0.6875 -1.953125 -0.6875q-0.921875 0 -1.484375 0.484375q-0.546875 0.46875 -0.546875 1.0625q0 0.71875 0.40625 1.25q0.40625 0.53125 1.640625 1.125l1.90625 0.921875q2.640625 1.296875 2.640625 3.40625q0 1.625 -1.234375 2.625q-1.234375 0.984375 -2.75 0.984375q-1.09375 0 -2.5 -0.390625q-0.421875 -0.125 -0.703125 -0.125q-0.296875 0 -0.46875 0.34375l-0.421875 0l0 -4.265625l0.421875 0q0.359375 1.828125 1.390625 2.75q1.03125 0.921875 2.3125 0.921875q0.890625 0 1.453125 -0.515625q0.578125 -0.53125 0.578125 -1.28125q0 -0.890625 -0.640625 -1.5q-0.625 -0.625 -2.515625 -1.5625q-1.890625 -0.9375 -2.46875 -1.6875q-0.59375 -0.734375 -0.59375 -1.875q0 -1.46875 1.0 -2.453125q1.015625 -1.0 2.625 -1.0q0.703125 0 1.703125 0.3125q0.65625 0.1875 0.890625 0.1875q0.203125 0 0.3125 -0.09375q0.125 -0.09375 0.28125 -0.40625l0.421875 0zm4.686035 4.84375q-0.015625 2.65625 1.28125 4.171875q1.296875 1.515625 3.0625 1.515625q1.171875 0 2.03125 -0.640625q0.875 -0.65625 1.453125 -2.21875l0.40625 0.265625q-0.28125 1.78125 -1.59375 3.25q-1.3125 1.453125 -3.28125 1.453125q-2.15625 0 -3.6875 -1.671875q-1.53125 -1.671875 -1.53125 -4.5q0 -3.046875 1.5625 -4.75q1.578125 -1.71875 3.953125 -1.71875q2.0 0 3.28125 1.328125q1.296875 1.3125 1.296875 3.515625l-8.234375 0zm0 -0.75l5.515625 0q-0.0625 -1.140625 -0.28125 -1.609375q-0.328125 -0.734375 -0.96875 -1.140625q-0.640625 -0.421875 -1.34375 -0.421875q-1.078125 0 -1.9375 0.84375q-0.84375 0.828125 -0.984375 2.328125zm19.948486 -7.65625l0 3.921875l2.78125 0l0 0.90625l-2.78125 0l0 7.734375q0 1.15625 0.328125 1.5625q0.328125 0.40625 0.859375 0.40625q0.421875 0 0.828125 -0.265625q0.40625 -0.265625 0.625 -0.796875l0.5 0q-0.453125 1.28125 -1.28125 1.921875q-0.828125 0.640625 -1.71875 0.640625q-0.59375 0 -1.171875 -0.328125q-0.578125 -0.328125 -0.859375 -0.9375q-0.265625 -0.625 -0.265625 -1.921875l0 -8.015625l-1.875 0l0 -0.421875q0.703125 -0.296875 1.453125 -0.96875q0.75 -0.6875 1.34375 -1.625q0.296875 -0.5 0.828125 -1.8125l0.40625 0zm9.780945 3.5625q2.703125 0 4.34375 2.0625q1.390625 1.765625 1.390625 4.03125q0 1.609375 -0.765625 3.25q-0.765625 1.640625 -2.125 2.46875q-1.34375 0.828125 -3.0 0.828125q-2.6875 0 -4.28125 -2.140625q-1.34375 -1.8125 -1.34375 -4.0625q0 -1.640625 0.8125 -3.25q0.828125 -1.625 2.15625 -2.40625q1.328125 -0.78125 2.8125 -0.78125zm-0.40625 0.859375q-0.6875 0 -1.390625 0.40625q-0.703125 0.40625 -1.140625 1.4375q-0.421875 1.03125 -0.421875 2.640625q0 2.609375 1.03125 4.5q1.046875 1.875 2.734375 1.875q1.265625 0 2.078125 -1.03125q0.828125 -1.046875 0.828125 -3.59375q0 -3.171875 -1.375 -4.984375q-0.921875 -1.25 -2.34375 -1.25zm22.257812 -0.859375l0 4.0625l-0.421875 0q-0.5 -1.90625 -1.28125 -2.59375q-0.765625 -0.6875 -1.953125 -0.6875q-0.921875 0 -1.484375 0.484375q-0.546875 0.46875 -0.546875 1.0625q0 0.71875 0.40625 1.25q0.40625 0.53125 1.640625 1.125l1.90625 0.921875q2.640625 1.296875 2.640625 3.40625q0 1.625 -1.234375 2.625q-1.234375 0.984375 -2.75 0.984375q-1.09375 0 -2.5 -0.390625q-0.421875 -0.125 -0.703125 -0.125q-0.296875 0 -0.46875 0.34375l-0.421875 0l0 -4.265625l0.421875 0q0.359375 1.828125 1.390625 2.75q1.03125 0.921875 2.3125 0.921875q0.890625 0 1.453125 -0.515625q0.578125 -0.53125 0.578125 -1.28125q0 -0.890625 -0.640625 -1.5q-0.625 -0.625 -2.515625 -1.5625q-1.890625 -0.9375 -2.46875 -1.6875q-0.59375 -0.734375 -0.59375 -1.875q0 -1.46875 1.0 -2.453125q1.015625 -1.0 2.625 -1.0q0.703125 0 1.703125 0.3125q0.65625 0.1875 0.890625 0.1875q0.203125 0 0.3125 -0.09375q0.125 -0.09375 0.28125 -0.40625l0.421875 0zm8.514221 0q2.703125 0 4.34375 2.0625q1.390625 1.765625 1.390625 4.03125q0 1.609375 -0.765625 3.25q-0.765625 1.640625 -2.125 2.46875q-1.34375 0.828125 -3.0 0.828125q-2.6875 0 -4.28125 -2.140625q-1.34375 -1.8125 -1.34375 -4.0625q0 -1.640625 0.8125 -3.25q0.828125 -1.625 2.15625 -2.40625q1.328125 -0.78125 2.8125 -0.78125zm-0.40625 0.859375q-0.6875 0 -1.390625 0.40625q-0.703125 0.40625 -1.140625 1.4375q-0.421875 1.03125 -0.421875 2.640625q0 2.609375 1.03125 4.5q1.046875 1.875 2.734375 1.875q1.265625 0 2.078125 -1.03125q0.828125 -1.046875 0.828125 -3.59375q0 -3.171875 -1.375 -4.984375q-0.921875 -1.25 -2.34375 -1.25zm12.0 -7.09375l0 15.828125q0 1.109375 0.15625 1.484375q0.171875 0.359375 0.5 0.546875q0.34375 0.1875 1.265625 0.1875l0 0.46875l-5.84375 0l0 -0.46875q0.8125 0 1.109375 -0.171875q0.3125 -0.171875 0.46875 -0.5625q0.171875 -0.390625 0.171875 -1.484375l0 -10.828125q0 -2.03125 -0.09375 -2.484375q-0.078125 -0.46875 -0.28125 -0.625q-0.203125 -0.171875 -0.515625 -0.171875q-0.34375 0 -0.859375 0.203125l-0.21875 -0.453125l3.546875 -1.46875l0.59375 0zm2.6871948 6.59375l5.609375 0l0 0.484375l-0.359375 0q-0.515625 0 -0.78125 0.25q-0.265625 0.234375 -0.265625 0.65625q0 0.453125 0.28125 1.078125l2.765625 6.59375l2.78125 -6.84375q0.3125 -0.71875 0.3125 -1.09375q0 -0.1875 -0.109375 -0.3125q-0.140625 -0.1875 -0.375 -0.25q-0.21875 -0.078125 -0.890625 -0.078125l0 -0.484375l3.890625 0l0 0.484375q-0.671875 0.046875 -0.9375 0.265625q-0.453125 0.390625 -0.8125 1.3125l-4.234375 10.21875l-0.53125 0l-4.265625 -10.0625q-0.28125 -0.703125 -0.546875 -1.0q-0.25 -0.3125 -0.65625 -0.515625q-0.21875 -0.125 -0.875 -0.21875l0 -0.484375zm15.953125 4.484375q-0.015625 2.65625 1.28125 4.171875q1.296875 1.515625 3.0625 1.515625q1.171875 0 2.03125 -0.640625q0.875 -0.65625 1.453125 -2.21875l0.40625 0.265625q-0.28125 1.78125 -1.59375 3.25q-1.3125 1.453125 -3.28125 1.453125q-2.15625 0 -3.6875 -1.671875q-1.53125 -1.671875 -1.53125 -4.5q0 -3.046875 1.5625 -4.75q1.578125 -1.71875 3.953125 -1.71875q2.0 0 3.28125 1.328125q1.296875 1.3125 1.296875 3.515625l-8.234375 0zm0 -0.75l5.515625 0q-0.0625 -1.140625 -0.28125 -1.609375q-0.328125 -0.734375 -0.96875 -1.140625q-0.640625 -0.421875 -1.34375 -0.421875q-1.078125 0 -1.9375 0.84375q-0.84375 0.828125 -0.984375 2.328125z" fill-rule="nonzero"/><path fill="#000000" d="m385.2591 210.40619q-1.84375 1.421875 -2.3125 1.640625q-0.703125 0.328125 -1.5 0.328125q-1.234375 0 -2.03125 -0.84375q-0.796875 -0.84375 -0.796875 -2.234375q0 -0.875 0.390625 -1.5q0.53125 -0.890625 1.84375 -1.671875q1.328125 -0.78125 4.40625 -1.90625l0 -0.46875q0 -1.78125 -0.578125 -2.4375q-0.5625 -0.671875 -1.640625 -0.671875q-0.8125 0 -1.296875 0.453125q-0.5 0.4375 -0.5 1.015625l0.03125 0.75q0 0.59375 -0.3125 0.921875q-0.296875 0.328125 -0.796875 0.328125q-0.484375 0 -0.796875 -0.328125q-0.296875 -0.34375 -0.296875 -0.9375q0 -1.125 1.140625 -2.0625q1.15625 -0.9375 3.21875 -0.9375q1.59375 0 2.609375 0.546875q0.765625 0.390625 1.125 1.25q0.234375 0.5625 0.234375 2.296875l0 4.046875q0 1.703125 0.0625 2.09375q0.0625 0.375 0.21875 0.515625q0.15625 0.125 0.34375 0.125q0.203125 0 0.359375 -0.09375q0.28125 -0.171875 1.0625 -0.953125l0 0.734375q-1.453125 1.953125 -2.78125 1.953125q-0.640625 0 -1.03125 -0.4375q-0.375 -0.453125 -0.375 -1.515625zm0 -0.84375l0 -4.546875q-1.96875 0.78125 -2.546875 1.109375q-1.03125 0.578125 -1.46875 1.203125q-0.4375 0.625 -0.4375 1.359375q0 0.9375 0.546875 1.5625q0.5625 0.609375 1.296875 0.609375q0.984375 0 2.609375 -1.296875zm10.870392 -8.171875l3.671875 -1.484375l0.5 0l0 2.78125q0.921875 -1.578125 1.84375 -2.203125q0.9375 -0.640625 1.96875 -0.640625q1.796875 0 3.0 1.40625q1.46875 1.71875 1.46875 4.484375q0 3.078125 -1.78125 5.109375q-1.453125 1.640625 -3.671875 1.640625q-0.953125 0 -1.65625 -0.265625q-0.515625 -0.203125 -1.171875 -0.78125l0 3.625q0 1.234375 0.140625 1.5625q0.15625 0.328125 0.53125 0.515625q0.375 0.203125 1.34375 0.203125l0 0.484375l-6.25 0l0 -0.484375l0.328125 0q0.71875 0.015625 1.21875 -0.265625q0.25 -0.15625 0.390625 -0.46875q0.140625 -0.3125 0.140625 -1.625l0 -11.265625q0 -1.15625 -0.109375 -1.46875q-0.109375 -0.3125 -0.34375 -0.46875q-0.21875 -0.15625 -0.609375 -0.15625q-0.3125 0 -0.796875 0.171875l-0.15625 -0.40625zm4.171875 2.0625l0 4.453125q0 1.453125 0.109375 1.90625q0.1875 0.75 0.890625 1.328125q0.71875 0.5625 1.796875 0.5625q1.296875 0 2.109375 -1.015625q1.046875 -1.328125 1.046875 -3.734375q0 -2.734375 -1.1875 -4.203125q-0.84375 -1.015625 -1.984375 -1.015625q-0.625 0 -1.234375 0.3125q-0.46875 0.234375 -1.546875 1.40625zm13.515625 -3.609375l0 2.6875q1.484375 -2.6875 3.0625 -2.6875q0.71875 0 1.1875 0.4375q0.46875 0.4375 0.46875 1.015625q0 0.5 -0.34375 0.859375q-0.328125 0.34375 -0.796875 0.34375q-0.46875 0 -1.03125 -0.4375q-0.5625 -0.453125 -0.828125 -0.453125q-0.234375 0 -0.515625 0.265625q-0.578125 0.53125 -1.203125 1.75l0 5.71875q0 0.984375 0.234375 1.5q0.171875 0.34375 0.59375 0.578125q0.4375 0.234375 1.25 0.234375l0 0.46875l-6.109375 0l0 -0.46875q0.90625 0 1.359375 -0.28125q0.328125 -0.21875 0.453125 -0.671875q0.0625 -0.21875 0.0625 -1.265625l0 -4.609375q0 -2.09375 -0.09375 -2.484375q-0.078125 -0.390625 -0.3125 -0.578125q-0.21875 -0.1875 -0.5625 -0.1875q-0.390625 0 -0.90625 0.203125l-0.125 -0.46875l3.609375 -1.46875l0.546875 0zm11.2204895 0q2.703125 0 4.34375 2.0625q1.390625 1.765625 1.390625 4.03125q0 1.609375 -0.765625 3.25q-0.765625 1.640625 -2.125 2.46875q-1.34375 0.828125 -3.0 0.828125q-2.6875 0 -4.28125 -2.140625q-1.34375 -1.8125 -1.34375 -4.0625q0 -1.640625 0.8125 -3.25q0.828125 -1.625 2.15625 -2.40625q1.328125 -0.78125 2.8125 -0.78125zm-0.40625 0.859375q-0.6875 0 -1.390625 0.40625q-0.703125 0.40625 -1.140625 1.4375q-0.421875 1.03125 -0.421875 2.640625q0 2.609375 1.03125 4.5q1.046875 1.875 2.734375 1.875q1.265625 0 2.078125 -1.03125q0.828125 -1.046875 0.828125 -3.59375q0 -3.171875 -1.375 -4.984375q-0.921875 -1.25 -2.34375 -1.25zm11.15625 1.5625q1.734375 -2.421875 3.734375 -2.421875q1.84375 0 3.203125 1.578125q1.375 1.5625 1.375 4.28125q0 3.1875 -2.109375 5.125q-1.8125 1.65625 -4.03125 1.65625q-1.046875 0 -2.125 -0.375q-1.0625 -0.375 -2.1875 -1.125l0 -12.359375q0 -2.03125 -0.109375 -2.5q-0.09375 -0.46875 -0.296875 -0.625q-0.203125 -0.171875 -0.515625 -0.171875q-0.375 0 -0.921875 0.203125l-0.171875 -0.453125l3.578125 -1.46875l0.578125 0l0 8.65625zm0 0.828125l0 7.125q0.671875 0.65625 1.375 1.0q0.71875 0.328125 1.453125 0.328125q1.1875 0 2.203125 -1.296875q1.03125 -1.3125 1.03125 -3.796875q0 -2.296875 -1.03125 -3.515625q-1.015625 -1.234375 -2.3125 -1.234375q-0.6875 0 -1.390625 0.34375q-0.515625 0.265625 -1.328125 1.046875zm14.171875 -9.484375l0 15.828125q0 1.109375 0.15625 1.484375q0.171875 0.359375 0.5 0.546875q0.34375 0.1875 1.265625 0.1875l0 0.46875l-5.84375 0l0 -0.46875q0.8125 0 1.109375 -0.171875q0.3125 -0.171875 0.46875 -0.5625q0.171875 -0.390625 0.171875 -1.484375l0 -10.828125q0 -2.03125 -0.09375 -2.484375q-0.078125 -0.46875 -0.28125 -0.625q-0.203125 -0.171875 -0.515625 -0.171875q-0.34375 0 -0.859375 0.203125l-0.21875 -0.453125l3.546875 -1.46875l0.59375 0zm5.312195 11.078125q-0.015625 2.65625 1.28125 4.171875q1.296875 1.515625 3.0625 1.515625q1.171875 0 2.03125 -0.640625q0.875 -0.65625 1.453125 -2.21875l0.40625 0.265625q-0.28125 1.78125 -1.59375 3.25q-1.3125 1.453125 -3.28125 1.453125q-2.15625 0 -3.6875 -1.671875q-1.53125 -1.671875 -1.53125 -4.5q0 -3.046875 1.5625 -4.75q1.578125 -1.71875 3.953125 -1.71875q2.0 0 3.28125 1.328125q1.296875 1.3125 1.296875 3.515625l-8.234375 0zm0 -0.75l5.515625 0q-0.0625 -1.140625 -0.28125 -1.609375q-0.328125 -0.734375 -0.96875 -1.140625q-0.640625 -0.421875 -1.34375 -0.421875q-1.078125 0 -1.9375 0.84375q-0.84375 0.828125 -0.984375 2.328125zm13.362579 -1.546875q1.296875 -1.296875 1.53125 -1.5q0.59375 -0.5 1.265625 -0.765625q0.671875 -0.28125 1.34375 -0.28125q1.109375 0 1.921875 0.65625q0.8125 0.65625 1.078125 1.890625q1.34375 -1.5625 2.265625 -2.046875q0.921875 -0.5 1.90625 -0.5q0.953125 0 1.6875 0.5q0.734375 0.484375 1.15625 1.59375q0.296875 0.75 0.296875 2.359375l0 5.140625q0 1.109375 0.15625 1.53125q0.140625 0.28125 0.484375 0.484375q0.359375 0.203125 1.140625 0.203125l0 0.46875l-5.875 0l0 -0.46875l0.25 0q0.765625 0 1.1875 -0.296875q0.3125 -0.203125 0.4375 -0.671875q0.046875 -0.21875 0.046875 -1.25l0 -5.140625q0 -1.453125 -0.34375 -2.046875q-0.515625 -0.84375 -1.625 -0.84375q-0.703125 0 -1.40625 0.359375q-0.6875 0.34375 -1.671875 1.28125l-0.03125 0.140625l0.03125 0.5625l0 5.6875q0 1.21875 0.140625 1.515625q0.140625 0.296875 0.515625 0.5q0.375 0.203125 1.28125 0.203125l0 0.46875l-6.03125 0l0 -0.46875q1.0 0 1.359375 -0.234375q0.375 -0.234375 0.515625 -0.703125q0.078125 -0.21875 0.078125 -1.28125l0 -5.140625q0 -1.453125 -0.4375 -2.09375q-0.578125 -0.828125 -1.59375 -0.828125q-0.703125 0 -1.390625 0.375q-1.09375 0.578125 -1.671875 1.296875l0 6.390625q0 1.171875 0.15625 1.53125q0.171875 0.34375 0.484375 0.515625q0.328125 0.171875 1.296875 0.171875l0 0.46875l-5.890625 0l0 -0.46875q0.8125 0 1.140625 -0.171875q0.328125 -0.171875 0.484375 -0.5625q0.171875 -0.390625 0.171875 -1.484375l0 -4.5625q0 -1.96875 -0.109375 -2.53125q-0.09375 -0.4375 -0.296875 -0.59375q-0.1875 -0.171875 -0.53125 -0.171875q-0.359375 0 -0.859375 0.203125l-0.203125 -0.46875l3.59375 -1.46875l0.5625 0l0 2.546875z" fill-rule="nonzero"/><path fill="#000000" fill-opacity="0.0" d="m368.66534 236.89764l337.7008 0l0 66.20471l-337.7008 0z" fill-rule="evenodd"/><path fill="#6aa84f" d="m383.14972 262.0289l8.1875 0l0 -5.046875q0 -1.3437653 -0.15625 -1.7812653q-0.140625 -0.328125 -0.546875 -0.5625q-0.5625 -0.3125 -1.1875 -0.3125l-0.625 0l0 -0.484375l7.546875 0l0 0.484375l-0.625 0q-0.625 0 -1.1875 0.296875q-0.40625 0.21875 -0.5625 0.640625q-0.15625 0.421875 -0.15625 1.7187653l0 11.390625q0 1.34375 0.171875 1.765625q0.140625 0.328125 0.53125 0.5625q0.578125 0.3125 1.203125 0.3125l0.625 0l0 0.484375l-7.546875 0l0 -0.484375l0.625 0q1.078125 0 1.578125 -0.640625q0.3125 -0.40625 0.3125 -2.0l0 -5.375l-8.1875 0l0 5.375q0 1.34375 0.171875 1.765625q0.125 0.328125 0.546875 0.5625q0.546875 0.3125 1.171875 0.3125l0.640625 0l0 0.484375l-7.5625 0l0 -0.484375l0.625 0q1.09375 0 1.59375 -0.640625q0.3125 -0.40625 0.3125 -2.0l0 -11.390625q0 -1.3437653 -0.171875 -1.7812653q-0.125 -0.328125 -0.53125 -0.5625q-0.578125 -0.3125 -1.203125 -0.3125l-0.625 0l0 -0.484375l7.5625 0l0 0.484375l-0.640625 0q-0.625 0 -1.171875 0.296875q-0.40625 0.21875 -0.5625 0.640625q-0.15625 0.421875 -0.15625 1.7187653l0 5.046875zm20.437805 -2.8125q2.703125 0 4.34375 2.0625q1.390625 1.765625 1.390625 4.03125q0 1.609375 -0.765625 3.25q-0.765625 1.640625 -2.125 2.46875q-1.34375 0.828125 -3.0 0.828125q-2.6875 0 -4.28125 -2.140625q-1.34375 -1.8125 -1.34375 -4.0625q0 -1.640625 0.8125 -3.25q0.828125 -1.625 2.15625 -2.40625q1.328125 -0.78125 2.8125 -0.78125zm-0.40625 0.859375q-0.6875 0 -1.390625 0.40625q-0.703125 0.40625 -1.140625 1.4375q-0.421875 1.03125 -0.421875 2.640625q0 2.609375 1.03125 4.5q1.046875 1.875 2.734375 1.875q1.265625 0 2.078125 -1.03125q0.828125 -1.046875 0.828125 -3.59375q0 -3.171875 -1.375 -4.984375q-0.921875 -1.25 -2.34375 -1.25zm7.234375 -0.5l5.0 0l0 0.484375q-0.6875 0.046875 -0.90625 0.25q-0.21875 0.1875 -0.21875 0.546875q0 0.40625 0.21875 0.984375l2.546875 6.859375l2.578125 -5.578125l-0.6875 -1.765625q-0.3125 -0.78125 -0.8125 -1.078125q-0.296875 -0.1875 -1.078125 -0.21875l0 -0.484375l5.6875 0l0 0.484375q-0.9375 0.03125 -1.328125 0.328125q-0.265625 0.21875 -0.265625 0.671875q0 0.265625 0.109375 0.53125l2.703125 6.84375l2.515625 -6.59375q0.25 -0.703125 0.25 -1.125q0 -0.25 -0.25 -0.4375q-0.25 -0.203125 -1.0 -0.21875l0 -0.484375l3.765625 0l0 0.484375q-1.125 0.171875 -1.65625 1.53125l-3.984375 10.265625l-0.53125 0l-2.984375 -7.609375l-3.484375 7.609375l-0.46875 0l-3.828125 -10.015625q-0.390625 -0.953125 -0.75 -1.28125q-0.359375 -0.328125 -1.140625 -0.5l0 -0.484375zm34.992462 10.578125q-0.875 0.921875 -1.703125 1.3125q-0.828125 0.390625 -1.796875 0.390625q-1.953125 0 -3.40625 -1.625q-1.453125 -1.640625 -1.453125 -4.203125q0 -2.5625 1.609375 -4.6875q1.609375 -2.125 4.15625 -2.125q1.5625 0 2.59375 1.0l0 -2.203125q0 -2.0468903 -0.09375 -2.5156403q-0.09375 -0.46875 -0.3125 -0.625q-0.203125 -0.171875 -0.515625 -0.171875q-0.34375 0 -0.890625 0.203125l-0.171875 -0.453125l3.546875 -1.46875l0.59375 0l0 13.79689q0 2.09375 0.09375 2.5625q0.09375 0.453125 0.3125 0.640625q0.21875 0.171875 0.5 0.171875q0.359375 0 0.9375 -0.21875l0.140625 0.453125l-3.53125 1.46875l-0.609375 0l0 -1.703125zm0 -0.90625l0 -6.140625q-0.078125 -0.890625 -0.46875 -1.609375q-0.390625 -0.734375 -1.03125 -1.109375q-0.640625 -0.375 -1.25 -0.375q-1.15625 0 -2.046875 1.03125q-1.1875 1.359375 -1.1875 3.953125q0 2.640625 1.140625 4.046875q1.15625 1.390625 2.5625 1.390625q1.171875 0 2.28125 -1.1875zm7.9375 -16.26564q0.546875 0 0.9375 0.390625q0.390625 0.390625 0.390625 0.9375q0 0.546875 -0.390625 0.9375q-0.390625 0.390625 -0.9375 0.390625q-0.546875 0 -0.9375 -0.390625q-0.390625 -0.390625 -0.390625 -0.9375q0 -0.546875 0.390625 -0.9375q0.390625 -0.390625 0.9375 -0.390625zm1.09375 6.2343903l0 9.59375q0 1.109375 0.15625 1.484375q0.15625 0.375 0.46875 0.5625q0.328125 0.171875 1.171875 0.171875l0 0.46875l-5.78125 0l0 -0.46875q0.859375 0 1.15625 -0.171875q0.3125 -0.171875 0.484375 -0.5625q0.171875 -0.390625 0.171875 -1.484375l0 -4.59375q0 -1.953125 -0.109375 -2.515625q-0.09375 -0.421875 -0.296875 -0.578125q-0.1875 -0.171875 -0.53125 -0.171875q-0.359375 0 -0.875 0.203125l-0.1875 -0.46875l3.59375 -1.46875l0.578125 0zm11.70285 10.9375q-0.875 0.921875 -1.703125 1.3125q-0.828125 0.390625 -1.796875 0.390625q-1.953125 0 -3.40625 -1.625q-1.453125 -1.640625 -1.453125 -4.203125q0 -2.5625 1.609375 -4.6875q1.609375 -2.125 4.15625 -2.125q1.5625 0 2.59375 1.0l0 -2.203125q0 -2.0468903 -0.09375 -2.5156403q-0.09375 -0.46875 -0.3125 -0.625q-0.203125 -0.171875 -0.515625 -0.171875q-0.34375 0 -0.890625 0.203125l-0.171875 -0.453125l3.546875 -1.46875l0.59375 0l0 13.79689q0 2.09375 0.09375 2.5625q0.09375 0.453125 0.3125 0.640625q0.21875 0.171875 0.5 0.171875q0.359375 0 0.9375 -0.21875l0.140625 0.453125l-3.53125 1.46875l-0.609375 0l0 -1.703125zm0 -0.90625l0 -6.140625q-0.078125 -0.890625 -0.46875 -1.609375q-0.390625 -0.734375 -1.03125 -1.109375q-0.640625 -0.375 -1.25 -0.375q-1.15625 0 -2.046875 1.03125q-1.1875 1.359375 -1.1875 3.953125q0 2.640625 1.140625 4.046875q1.15625 1.390625 2.5625 1.390625q1.171875 0 2.28125 -1.1875zm15.0390625 -13.593765l0 3.9218903l2.78125 0l0 0.90625l-2.78125 0l0 7.734375q0 1.15625 0.328125 1.5625q0.328125 0.40625 0.859375 0.40625q0.421875 0 0.828125 -0.265625q0.40625 -0.265625 0.625 -0.796875l0.5 0q-0.453125 1.28125 -1.28125 1.921875q-0.828125 0.640625 -1.71875 0.640625q-0.59375 0 -1.171875 -0.328125q-0.578125 -0.328125 -0.859375 -0.9375q-0.265625 -0.625 -0.265625 -1.921875l0 -8.015625l-1.875 0l0 -0.421875q0.703125 -0.296875 1.453125 -0.96875q0.75 -0.6875 1.34375 -1.625q0.296875 -0.5 0.828125 -1.8125153l0.40625 0zm7.437195 -2.671875l0 8.73439q1.453125 -1.59375 2.296875 -2.046875q0.84375 -0.453125 1.6875 -0.453125q1.015625 0 1.75 0.5625q0.734375 0.5625 1.078125 1.765625q0.25 0.828125 0.25 3.046875l0 4.21875q0 1.125 0.1875 1.546875q0.125 0.3125 0.4375 0.5q0.3125 0.171875 1.140625 0.171875l0 0.46875l-5.859375 0l0 -0.46875l0.28125 0q0.828125 0 1.15625 -0.25q0.328125 -0.25 0.453125 -0.75q0.046875 -0.203125 0.046875 -1.21875l0 -4.21875q0 -1.953125 -0.203125 -2.5625q-0.203125 -0.625 -0.65625 -0.921875q-0.4375 -0.3125 -1.0625 -0.3125q-0.640625 0 -1.328125 0.34375q-0.6875 0.34375 -1.65625 1.359375l0 6.3125q0 1.21875 0.140625 1.515625q0.140625 0.296875 0.5 0.5q0.375 0.203125 1.296875 0.203125l0 0.46875l-5.921875 0l0 -0.46875q0.796875 0 1.25 -0.25q0.265625 -0.125 0.421875 -0.484375q0.15625 -0.375 0.15625 -1.484375l0 -10.796875q0 -2.0468903 -0.09375 -2.5156403q-0.09375 -0.46875 -0.296875 -0.625q-0.203125 -0.171875 -0.546875 -0.171875q-0.265625 0 -0.890625 0.203125l-0.171875 -0.453125l3.5625 -1.46875l0.59375 0zm11.84375 11.07814q-0.015625 2.65625 1.28125 4.171875q1.296875 1.515625 3.0625 1.515625q1.171875 0 2.03125 -0.640625q0.875 -0.65625 1.453125 -2.21875l0.40625 0.265625q-0.28125 1.78125 -1.59375 3.25q-1.3125 1.453125 -3.28125 1.453125q-2.15625 0 -3.6875 -1.671875q-1.53125 -1.671875 -1.53125 -4.5q0 -3.046875 1.5625 -4.75q1.578125 -1.71875 3.953125 -1.71875q2.0 0 3.28125 1.328125q1.296875 1.3125 1.296875 3.515625l-8.234375 0zm0 -0.75l5.515625 0q-0.0625 -1.140625 -0.28125 -1.609375q-0.328125 -0.734375 -0.96875 -1.140625q-0.640625 -0.421875 -1.34375 -0.421875q-1.078125 0 -1.9375 0.84375q-0.84375 0.828125 -0.984375 2.328125zm9.143829 -3.734375l5.5624695 0l0 0.484375l-0.28125 0q-0.578125 0 -0.875 0.25q-0.296875 0.25 -0.296875 0.625q0 0.515625 0.4375 1.40625l2.890625 6.015625l2.671875 -6.578125q0.21875 -0.53125 0.21875 -1.0625q0 -0.234375 -0.078125 -0.34375q-0.109375 -0.140625 -0.328125 -0.21875q-0.21875 -0.09375 -0.78125 -0.09375l0 -0.484375l3.875 0l0 0.484375q-0.484375 0.046875 -0.75 0.203125q-0.25 0.15625 -0.5625 0.59375q-0.125 0.171875 -0.4375 1.0l-4.859375 11.890625q-0.703125 1.734375 -1.84375 2.609375q-1.140625 0.890625 -2.1874695 0.890625q-0.78125 0 -1.28125 -0.4375q-0.484375 -0.4375 -0.484375 -1.015625q0 -0.546875 0.359375 -0.890625q0.359375 -0.328125 0.984375 -0.328125q0.421875 0 1.1718445 0.296875q0.515625 0.1875 0.65625 0.1875q0.390625 0 0.84375 -0.40625q0.46875 -0.390625 0.9375 -1.5625l0.84375 -2.0625l-4.2812195 -9.0q-0.203125 -0.390625 -0.625 -1.0q-0.328125 -0.453125 -0.53125 -0.609375q-0.3125 -0.203125 -0.96875 -0.359375l0 -0.484375zm28.367157 -0.359375l0 4.0625l-0.421875 0q-0.5 -1.90625 -1.28125 -2.59375q-0.765625 -0.6875 -1.953125 -0.6875q-0.921875 0 -1.484375 0.484375q-0.546875 0.46875 -0.546875 1.0625q0 0.71875 0.40625 1.25q0.40625 0.53125 1.640625 1.125l1.90625 0.921875q2.640625 1.296875 2.640625 3.40625q0 1.625 -1.234375 2.625q-1.234375 0.984375 -2.75 0.984375q-1.09375 0 -2.5 -0.390625q-0.421875 -0.125 -0.703125 -0.125q-0.296875 0 -0.46875 0.34375l-0.421875 0l0 -4.265625l0.421875 0q0.359375 1.828125 1.390625 2.75q1.03125 0.921875 2.3125 0.921875q0.890625 0 1.453125 -0.515625q0.578125 -0.53125 0.578125 -1.28125q0 -0.890625 -0.640625 -1.5q-0.625 -0.625 -2.515625 -1.5625q-1.890625 -0.9375 -2.46875 -1.6875q-0.59375 -0.734375 -0.59375 -1.875q0 -1.46875 1.0 -2.453125q1.015625 -1.0 2.625 -1.0q0.703125 0 1.703125 0.3125q0.65625 0.1875 0.890625 0.1875q0.203125 0 0.3125 -0.09375q0.125 -0.09375 0.28125 -0.40625l0.421875 0zm8.514221 0q2.703125 0 4.34375 2.0625q1.390625 1.765625 1.390625 4.03125q0 1.609375 -0.765625 3.25q-0.765625 1.640625 -2.125 2.46875q-1.34375 0.828125 -3.0 0.828125q-2.6875 0 -4.28125 -2.140625q-1.34375 -1.8125 -1.34375 -4.0625q0 -1.640625 0.8125 -3.25q0.828125 -1.625 2.15625 -2.40625q1.328125 -0.78125 2.8125 -0.78125zm-0.40625 0.859375q-0.6875 0 -1.390625 0.40625q-0.703125 0.40625 -1.140625 1.4375q-0.421875 1.03125 -0.421875 2.640625q0 2.609375 1.03125 4.5q1.046875 1.875 2.734375 1.875q1.265625 0 2.078125 -1.03125q0.828125 -1.046875 0.828125 -3.59375q0 -3.171875 -1.375 -4.984375q-0.921875 -1.25 -2.34375 -1.25zm12.0 -7.0937653l0 15.82814q0 1.109375 0.15625 1.484375q0.171875 0.359375 0.5 0.546875q0.34375 0.1875 1.265625 0.1875l0 0.46875l-5.84375 0l0 -0.46875q0.8125 0 1.109375 -0.171875q0.3125 -0.171875 0.46875 -0.5625q0.171875 -0.390625 0.171875 -1.484375l0 -10.828125q0 -2.0312653 -0.09375 -2.4843903q-0.078125 -0.46875 -0.28125 -0.625q-0.203125 -0.171875 -0.515625 -0.171875q-0.34375 0 -0.859375 0.203125l-0.21875 -0.453125l3.546875 -1.46875l0.59375 0zm2.6871948 6.5937653l5.609375 0l0 0.484375l-0.359375 0q-0.515625 0 -0.78125 0.25q-0.265625 0.234375 -0.265625 0.65625q0 0.453125 0.28125 1.078125l2.765625 6.59375l2.78125 -6.84375q0.3125 -0.71875 0.3125 -1.09375q0 -0.1875 -0.109375 -0.3125q-0.140625 -0.1875 -0.375 -0.25q-0.21875 -0.078125 -0.890625 -0.078125l0 -0.484375l3.890625 0l0 0.484375q-0.671875 0.046875 -0.9375 0.265625q-0.453125 0.390625 -0.8125 1.3125l-4.234375 10.21875l-0.53125 0l-4.265625 -10.0625q-0.28125 -0.703125 -0.546875 -1.0q-0.25 -0.3125 -0.65625 -0.515625q-0.21875 -0.125 -0.875 -0.21875l0 -0.484375zm15.953125 4.484375q-0.015625 2.65625 1.28125 4.171875q1.296875 1.515625 3.0625 1.515625q1.171875 0 2.03125 -0.640625q0.875 -0.65625 1.453125 -2.21875l0.40625 0.265625q-0.28125 1.78125 -1.59375 3.25q-1.3125 1.453125 -3.28125 1.453125q-2.15625 0 -3.6875 -1.671875q-1.53125 -1.671875 -1.53125 -4.5q0 -3.046875 1.5625 -4.75q1.578125 -1.71875 3.953125 -1.71875q2.0 0 3.28125 1.328125q1.296875 1.3125 1.296875 3.515625l-8.234375 0zm0 -0.75l5.515625 0q-0.0625 -1.140625 -0.28125 -1.609375q-0.328125 -0.734375 -0.96875 -1.140625q-0.640625 -0.421875 -1.34375 -0.421875q-1.078125 0 -1.9375 0.84375q-0.84375 0.828125 -0.984375 2.328125zm19.948486 -7.6562653l0 3.9218903l2.78125 0l0 0.90625l-2.78125 0l0 7.734375q0 1.15625 0.328125 1.5625q0.328125 0.40625 0.859375 0.40625q0.421875 0 0.828125 -0.265625q0.40625 -0.265625 0.625 -0.796875l0.5 0q-0.453125 1.28125 -1.28125 1.921875q-0.828125 0.640625 -1.71875 0.640625q-0.59375 0 -1.171875 -0.328125q-0.578125 -0.328125 -0.859375 -0.9375q-0.265625 -0.625 -0.265625 -1.921875l0 -8.015625l-1.875 0l0 -0.421875q0.703125 -0.296875 1.453125 -0.96875q0.75 -0.6875 1.34375 -1.625q0.296875 -0.5 0.828125 -1.8125153l0.40625 0zm7.437195 -2.671875l0 8.73439q1.453125 -1.59375 2.296875 -2.046875q0.84375 -0.453125 1.6875 -0.453125q1.015625 0 1.75 0.5625q0.734375 0.5625 1.078125 1.765625q0.25 0.828125 0.25 3.046875l0 4.21875q0 1.125 0.1875 1.546875q0.125 0.3125 0.4375 0.5q0.3125 0.171875 1.140625 0.171875l0 0.46875l-5.859375 0l0 -0.46875l0.28125 0q0.828125 0 1.15625 -0.25q0.328125 -0.25 0.453125 -0.75q0.046875 -0.203125 0.046875 -1.21875l0 -4.21875q0 -1.953125 -0.203125 -2.5625q-0.203125 -0.625 -0.65625 -0.921875q-0.4375 -0.3125 -1.0625 -0.3125q-0.640625 0 -1.328125 0.34375q-0.6875 0.34375 -1.65625 1.359375l0 6.3125q0 1.21875 0.140625 1.515625q0.140625 0.296875 0.5 0.5q0.375 0.203125 1.296875 0.203125l0 0.46875l-5.921875 0l0 -0.46875q0.796875 0 1.25 -0.25q0.265625 -0.125 0.421875 -0.484375q0.15625 -0.375 0.15625 -1.484375l0 -10.796875q0 -2.0468903 -0.09375 -2.5156403q-0.09375 -0.46875 -0.296875 -0.625q-0.203125 -0.171875 -0.546875 -0.171875q-0.265625 0 -0.890625 0.203125l-0.171875 -0.453125l3.5625 -1.46875l0.59375 0zm11.84375 11.07814q-0.015625 2.65625 1.28125 4.171875q1.296875 1.515625 3.0625 1.515625q1.171875 0 2.03125 -0.640625q0.875 -0.65625 1.453125 -2.21875l0.40625 0.265625q-0.28125 1.78125 -1.59375 3.25q-1.3125 1.453125 -3.28125 1.453125q-2.15625 0 -3.6875 -1.671875q-1.53125 -1.671875 -1.53125 -4.5q0 -3.046875 1.5625 -4.75q1.578125 -1.71875 3.953125 -1.71875q2.0 0 3.28125 1.328125q1.296875 1.3125 1.296875 3.515625l-8.234375 0zm0 -0.75l5.515625 0q-0.0625 -1.140625 -0.28125 -1.609375q-0.328125 -0.734375 -0.96875 -1.140625q-0.640625 -0.421875 -1.34375 -0.421875q-1.078125 0 -1.9375 0.84375q-0.84375 0.828125 -0.984375 2.328125z" fill-rule="nonzero"/><path fill="#6aa84f" d="m377.6341 292.76328l3.671875 -1.484375l0.5 0l0 2.78125q0.921875 -1.578125 1.84375 -2.203125q0.9375 -0.640625 1.96875 -0.640625q1.796875 0 3.0 1.40625q1.46875 1.71875 1.46875 4.484375q0 3.078125 -1.78125 5.109375q-1.453125 1.640625 -3.671875 1.640625q-0.953125 0 -1.65625 -0.265625q-0.515625 -0.203125 -1.171875 -0.78125l0 3.625q0 1.234375 0.140625 1.5625q0.15625 0.328125 0.53125 0.515625q0.375 0.203125 1.34375 0.203125l0 0.484375l-6.25 0l0 -0.484375l0.328125 0q0.71875 0.015625 1.21875 -0.265625q0.25 -0.15625 0.390625 -0.46875q0.140625 -0.3125 0.140625 -1.625l0 -11.265625q0 -1.15625 -0.109375 -1.46875q-0.109375 -0.3125 -0.34375 -0.46875q-0.21875 -0.15625 -0.609375 -0.15625q-0.3125 0 -0.796875 0.171875l-0.15625 -0.40625zm4.171875 2.0625l0 4.453125q0 1.453125 0.109375 1.90625q0.1875 0.75 0.890625 1.328125q0.71875 0.5625 1.796875 0.5625q1.296875 0 2.109375 -1.015625q1.046875 -1.328125 1.046875 -3.734375q0 -2.734375 -1.1875 -4.203125q-0.84375 -1.015625 -1.984375 -1.015625q-0.625 0 -1.234375 0.3125q-0.46875 0.234375 -1.546875 1.40625zm13.515625 -3.609375l0 2.6875q1.484375 -2.6875 3.0625 -2.6875q0.71875 0 1.1875 0.4375q0.46875 0.4375 0.46875 1.015625q0 0.5 -0.34375 0.859375q-0.328125 0.34375 -0.796875 0.34375q-0.46875 0 -1.03125 -0.4375q-0.5625 -0.453125 -0.828125 -0.453125q-0.234375 0 -0.515625 0.265625q-0.578125 0.53125 -1.203125 1.75l0 5.71875q0 0.984375 0.234375 1.5q0.171875 0.34375 0.59375 0.578125q0.4375 0.234375 1.25 0.234375l0 0.46875l-6.109375 0l0 -0.46875q0.90625 0 1.359375 -0.28125q0.328125 -0.21875 0.453125 -0.671875q0.0625 -0.21875 0.0625 -1.265625l0 -4.609375q0 -2.09375 -0.09375 -2.484375q-0.078125 -0.390625 -0.3125 -0.578125q-0.21875 -0.1875 -0.5625 -0.1875q-0.390625 0 -0.90625 0.203125l-0.125 -0.46875l3.609375 -1.46875l0.546875 0zm11.2204895 0q2.703125 0 4.34375 2.0625q1.390625 1.765625 1.390625 4.03125q0 1.609375 -0.765625 3.25q-0.765625 1.640625 -2.125 2.46875q-1.34375 0.828125 -3.0 0.828125q-2.6875 0 -4.28125 -2.140625q-1.34375 -1.8125 -1.34375 -4.0625q0 -1.640625 0.8125 -3.25q0.828125 -1.625 2.15625 -2.40625q1.328125 -0.78125 2.8125 -0.78125zm-0.40625 0.859375q-0.6875 0 -1.390625 0.40625q-0.703125 0.40625 -1.140625 1.4375q-0.421875 1.03125 -0.421875 2.640625q0 2.609375 1.03125 4.5q1.046875 1.875 2.734375 1.875q1.265625 0 2.078125 -1.03125q0.828125 -1.046875 0.828125 -3.59375q0 -3.171875 -1.375 -4.984375q-0.921875 -1.25 -2.34375 -1.25zm11.15625 1.5625q1.734375 -2.421875 3.734375 -2.421875q1.84375 0 3.203125 1.578125q1.375 1.5625 1.375 4.28125q0 3.1875 -2.109375 5.125q-1.8125 1.65625 -4.03125 1.65625q-1.046875 0 -2.125 -0.375q-1.0625 -0.375 -2.1875 -1.125l0 -12.359375q0 -2.03125 -0.109375 -2.5q-0.09375 -0.46875 -0.296875 -0.625q-0.203125 -0.171875 -0.515625 -0.171875q-0.375 0 -0.921875 0.203125l-0.171875 -0.453125l3.578125 -1.46875l0.578125 0l0 8.65625zm0 0.828125l0 7.125q0.671875 0.65625 1.375 1.0q0.71875 0.328125 1.453125 0.328125q1.1875 0 2.203125 -1.296875q1.03125 -1.3125 1.03125 -3.796875q0 -2.296875 -1.03125 -3.515625q-1.015625 -1.234375 -2.3125 -1.234375q-0.6875 0 -1.390625 0.34375q-0.515625 0.265625 -1.328125 1.046875zm14.171875 -9.484375l0 15.828125q0 1.109375 0.15625 1.484375q0.171875 0.359375 0.5 0.546875q0.34375 0.1875 1.265625 0.1875l0 0.46875l-5.84375 0l0 -0.46875q0.8125 0 1.109375 -0.171875q0.3125 -0.171875 0.46875 -0.5625q0.171875 -0.390625 0.171875 -1.484375l0 -10.828125q0 -2.03125 -0.09375 -2.484375q-0.078125 -0.46875 -0.28125 -0.625q-0.203125 -0.171875 -0.515625 -0.171875q-0.34375 0 -0.859375 0.203125l-0.21875 -0.453125l3.546875 -1.46875l0.59375 0zm5.3122253 11.078125q-0.015625 2.65625 1.28125 4.171875q1.296875 1.515625 3.0625 1.515625q1.171875 0 2.03125 -0.640625q0.875 -0.65625 1.453125 -2.21875l0.40625 0.265625q-0.28125 1.78125 -1.59375 3.25q-1.3125 1.453125 -3.28125 1.453125q-2.15625 0 -3.6875 -1.671875q-1.53125 -1.671875 -1.53125 -4.5q0 -3.046875 1.5625 -4.75q1.578125 -1.71875 3.953125 -1.71875q2.0 0 3.28125 1.328125q1.296875 1.3125 1.296875 3.515625l-8.234375 0zm0 -0.75l5.515625 0q-0.0625 -1.140625 -0.28125 -1.609375q-0.328125 -0.734375 -0.96875 -1.140625q-0.640625 -0.421875 -1.34375 -0.421875q-1.078125 0 -1.9375 0.84375q-0.84375 0.828125 -0.984375 2.328125zm13.362549 -1.546875q1.296875 -1.296875 1.53125 -1.5q0.59375 -0.5 1.265625 -0.765625q0.671875 -0.28125 1.34375 -0.28125q1.109375 0 1.921875 0.65625q0.8125 0.65625 1.078125 1.890625q1.34375 -1.5625 2.265625 -2.046875q0.921875 -0.5 1.90625 -0.5q0.953125 0 1.6875 0.5q0.734375 0.484375 1.15625 1.59375q0.296875 0.75 0.296875 2.359375l0 5.140625q0 1.109375 0.15625 1.53125q0.140625 0.28125 0.484375 0.484375q0.359375 0.203125 1.140625 0.203125l0 0.46875l-5.875 0l0 -0.46875l0.25 0q0.765625 0 1.1875 -0.296875q0.3125 -0.203125 0.4375 -0.671875q0.046875 -0.21875 0.046875 -1.25l0 -5.140625q0 -1.453125 -0.34375 -2.046875q-0.515625 -0.84375 -1.625 -0.84375q-0.703125 0 -1.40625 0.359375q-0.6875 0.34375 -1.671875 1.28125l-0.03125 0.140625l0.03125 0.5625l0 5.6875q0 1.21875 0.140625 1.515625q0.140625 0.296875 0.515625 0.5q0.375 0.203125 1.28125 0.203125l0 0.46875l-6.03125 0l0 -0.46875q1.0 0 1.359375 -0.234375q0.375 -0.234375 0.515625 -0.703125q0.078125 -0.21875 0.078125 -1.28125l0 -5.140625q0 -1.453125 -0.4375 -2.09375q-0.578125 -0.828125 -1.59375 -0.828125q-0.703125 0 -1.390625 0.375q-1.09375 0.578125 -1.671875 1.296875l0 6.390625q0 1.171875 0.15625 1.53125q0.171875 0.34375 0.484375 0.515625q0.328125 0.171875 1.296875 0.171875l0 0.46875l-5.890625 0l0 -0.46875q0.8125 0 1.140625 -0.171875q0.328125 -0.171875 0.484375 -0.5625q0.171875 -0.390625 0.171875 -1.484375l0 -4.5625q0 -1.96875 -0.109375 -2.53125q-0.09375 -0.4375 -0.296875 -0.59375q-0.1875 -0.171875 -0.53125 -0.171875q-0.359375 0 -0.859375 0.203125l-0.203125 -0.46875l3.59375 -1.46875l0.5625 0l0 2.546875z" fill-rule="nonzero"/><path fill="#000000" fill-opacity="0.0" d="m368.66534 338.56168l337.7008 0l0 66.20474l-337.7008 0z" fill-rule="evenodd"/><path fill="#e69138" d="m390.36847 355.50543l6.15625 0l0 0.484375l-0.34375 0q-0.328125 0 -0.984375 0.3125q-0.65625 0.296875 -1.1875 0.859375q-0.53125 0.546875 -1.3125 1.8125l-4.25 6.703125l0 4.421875q0 1.625 0.359375 2.03125q0.5 0.546875 1.5625 0.546875l0.578125 0l0 0.484375l-7.5 0l0 -0.484375l0.625 0q1.109375 0 1.578125 -0.671875q0.296875 -0.421875 0.296875 -1.90625l0 -4.171875l-4.84375 -7.390625q-0.859375 -1.3125 -1.171875 -1.625q-0.296875 -0.328125 -1.265625 -0.78125q-0.265625 -0.140625 -0.75 -0.140625l0 -0.484375l7.546875 0l0 0.484375l-0.390625 0q-0.609375 0 -1.125 0.296875q-0.515625 0.28125 -0.515625 0.859375q0 0.46875 0.796875 1.6875l3.6875 5.6875l3.453125 -5.4375q0.78125 -1.234375 0.78125 -1.828125q0 -0.359375 -0.1875 -0.640625q-0.1875 -0.296875 -0.546875 -0.453125q-0.34375 -0.171875 -1.046875 -0.171875l0 -0.484375zm10.549774 5.375q2.703125 0 4.34375 2.0625q1.390625 1.765625 1.390625 4.03125q0 1.609375 -0.765625 3.25q-0.765625 1.640625 -2.125 2.46875q-1.34375 0.828125 -3.0 0.828125q-2.6875 0 -4.28125 -2.140625q-1.34375 -1.8125 -1.34375 -4.0625q0 -1.640625 0.8125 -3.25q0.828125 -1.625 2.15625 -2.40625q1.328125 -0.78125 2.8125 -0.78125zm-0.40625 0.859375q-0.6875 0 -1.390625 0.40625q-0.703125 0.40625 -1.140625 1.4375q-0.421875 1.03125 -0.421875 2.640625q0 2.609375 1.03125 4.5q1.046875 1.875 2.734375 1.875q1.265625 0 2.078125 -1.03125q0.828125 -1.046875 0.828125 -3.59375q0 -3.171875 -1.375 -4.984375q-0.921875 -1.25 -2.34375 -1.25zm18.34375 -0.5l0 7.21875q0 2.078125 0.09375 2.546875q0.109375 0.453125 0.3125 0.640625q0.21875 0.171875 0.515625 0.171875q0.390625 0 0.90625 -0.21875l0.1875 0.453125l-3.578125 1.46875l-0.578125 0l0 -2.515625q-1.546875 1.65625 -2.359375 2.09375q-0.796875 0.421875 -1.6875 0.421875q-1.0 0 -1.75 -0.578125q-0.734375 -0.578125 -1.015625 -1.484375q-0.28125 -0.90625 -0.28125 -2.578125l0 -5.328125q0 -0.84375 -0.1875 -1.171875q-0.1875 -0.328125 -0.546875 -0.5q-0.34375 -0.171875 -1.28125 -0.15625l0 -0.484375l4.171875 0l0 7.984375q0 1.65625 0.578125 2.1875q0.578125 0.515625 1.40625 0.515625q0.546875 0 1.25 -0.34375q0.71875 -0.359375 1.703125 -1.34375l0 -6.765625q0 -1.015625 -0.375 -1.375q-0.375 -0.359375 -1.546875 -0.375l0 -0.484375l4.0625 0zm23.651062 -5.734375l0.203125 4.140625l-0.5 0q-0.140625 -1.09375 -0.390625 -1.5625q-0.40625 -0.75 -1.078125 -1.109375q-0.671875 -0.359375 -1.765625 -0.359375l-2.484375 0l0 13.484375q0 1.625 0.359375 2.03125q0.484375 0.546875 1.515625 0.546875l0.609375 0l0 0.484375l-7.484375 0l0 -0.484375l0.625 0q1.125 0 1.59375 -0.671875q0.28125 -0.421875 0.28125 -1.90625l0 -13.484375l-2.109375 0q-1.25 0 -1.765625 0.1875q-0.671875 0.25 -1.15625 0.953125q-0.484375 0.703125 -0.578125 1.890625l-0.484375 0l0.203125 -4.140625l14.40625 0zm5.1889343 -0.859375l0 8.734375q1.453125 -1.59375 2.296875 -2.046875q0.84375 -0.453125 1.6875 -0.453125q1.015625 0 1.75 0.5625q0.734375 0.5625 1.078125 1.765625q0.25 0.828125 0.25 3.046875l0 4.21875q0 1.125 0.1875 1.546875q0.125 0.3125 0.4375 0.5q0.3125 0.171875 1.140625 0.171875l0 0.46875l-5.859375 0l0 -0.46875l0.28125 0q0.828125 0 1.15625 -0.25q0.328125 -0.25 0.453125 -0.75q0.046875 -0.203125 0.046875 -1.21875l0 -4.21875q0 -1.953125 -0.203125 -2.5625q-0.203125 -0.625 -0.65625 -0.921875q-0.4375 -0.3125 -1.0625 -0.3125q-0.640625 0 -1.328125 0.34375q-0.6875 0.34375 -1.65625 1.359375l0 6.3125q0 1.21875 0.140625 1.515625q0.140625 0.296875 0.5 0.5q0.375 0.203125 1.296875 0.203125l0 0.46875l-5.921875 0l0 -0.46875q0.796875 0 1.25 -0.25q0.265625 -0.125 0.421875 -0.484375q0.15625 -0.375 0.15625 -1.484375l0 -10.796875q0 -2.046875 -0.09375 -2.515625q-0.09375 -0.46875 -0.296875 -0.625q-0.203125 -0.171875 -0.546875 -0.171875q-0.265625 0 -0.890625 0.203125l-0.171875 -0.453125l3.5625 -1.46875l0.59375 0zm15.671875 6.234375q2.703125 0 4.34375 2.0625q1.390625 1.765625 1.390625 4.03125q0 1.609375 -0.765625 3.25q-0.765625 1.640625 -2.125 2.46875q-1.34375 0.828125 -3.0 0.828125q-2.6875 0 -4.28125 -2.140625q-1.34375 -1.8125 -1.34375 -4.0625q0 -1.640625 0.8125 -3.25q0.828125 -1.625 2.15625 -2.40625q1.328125 -0.78125 2.8125 -0.78125zm-0.40625 0.859375q-0.6875 0 -1.390625 0.40625q-0.703125 0.40625 -1.140625 1.4375q-0.421875 1.03125 -0.421875 2.640625q0 2.609375 1.03125 4.5q1.046875 1.875 2.734375 1.875q1.265625 0 2.078125 -1.03125q0.828125 -1.046875 0.828125 -3.59375q0 -3.171875 -1.375 -4.984375q-0.921875 -1.25 -2.34375 -1.25zm18.34375 -0.5l0 7.21875q0 2.078125 0.09375 2.546875q0.109375 0.453125 0.3125 0.640625q0.21875 0.171875 0.515625 0.171875q0.390625 0 0.90625 -0.21875l0.1875 0.453125l-3.578125 1.46875l-0.578125 0l0 -2.515625q-1.546875 1.65625 -2.359375 2.09375q-0.796875 0.421875 -1.6875 0.421875q-1.0 0 -1.75 -0.578125q-0.734375 -0.578125 -1.015625 -1.484375q-0.28125 -0.90625 -0.28125 -2.578125l0 -5.328125q0 -0.84375 -0.1875 -1.171875q-0.1875 -0.328125 -0.546875 -0.5q-0.34375 -0.171875 -1.28125 -0.15625l0 -0.484375l4.171875 0l0 7.984375q0 1.65625 0.578125 2.1875q0.578125 0.515625 1.40625 0.515625q0.546875 0 1.25 -0.34375q0.71875 -0.359375 1.703125 -1.34375l0 -6.765625q0 -1.015625 -0.375 -1.375q-0.375 -0.359375 -1.546875 -0.375l0 -0.484375l4.0625 0zm6.0625 7.578125q-1.09375 -0.53125 -1.6875 -1.484375q-0.578125 -0.96875 -0.578125 -2.125q0 -1.765625 1.328125 -3.046875q1.34375 -1.28125 3.4375 -1.28125q1.703125 0 2.953125 0.84375l2.515625 0q0.5625 0 0.65625 0.03125q0.09375 0.03125 0.125 0.109375q0.078125 0.109375 0.078125 0.421875q0 0.328125 -0.0625 0.46875q-0.03125 0.0625 -0.140625 0.109375q-0.09375 0.03125 -0.65625 0.03125l-1.546875 0q0.734375 0.9375 0.734375 2.390625q0 1.671875 -1.28125 2.859375q-1.28125 1.171875 -3.421875 1.171875q-0.890625 0 -1.8125 -0.25q-0.5625 0.484375 -0.765625 0.859375q-0.203125 0.375 -0.203125 0.625q0 0.234375 0.203125 0.4375q0.21875 0.203125 0.84375 0.296875q0.375 0.046875 1.828125 0.09375q2.671875 0.0625 3.46875 0.1875q1.21875 0.15625 1.9375 0.890625q0.71875 0.734375 0.71875 1.796875q0 1.46875 -1.375 2.765625q-2.03125 1.890625 -5.296875 1.890625q-2.515625 0 -4.25 -1.125q-0.96875 -0.65625 -0.96875 -1.359375q0 -0.3125 0.140625 -0.625q0.21875 -0.484375 0.90625 -1.34375q0.09375 -0.109375 1.328125 -1.40625q-0.671875 -0.390625 -0.953125 -0.703125q-0.28125 -0.328125 -0.28125 -0.734375q0 -0.453125 0.375 -1.0625q0.375 -0.625 1.703125 -1.734375zm2.265625 -7.3125q-0.953125 0 -1.609375 0.78125q-0.65625 0.765625 -0.65625 2.34375q0 2.0625 0.890625 3.1875q0.671875 0.859375 1.71875 0.859375q0.984375 0 1.625 -0.734375q0.640625 -0.75 0.640625 -2.328125q0 -2.078125 -0.90625 -3.25q-0.65625 -0.859375 -1.703125 -0.859375zm-2.390625 11.65625q-0.609375 0.65625 -0.921875 1.234375q-0.3125 0.578125 -0.3125 1.0625q0 0.625 0.75 1.09375q1.3125 0.796875 3.765625 0.796875q2.34375 0 3.453125 -0.828125q1.109375 -0.828125 1.109375 -1.765625q0 -0.671875 -0.65625 -0.953125q-0.671875 -0.296875 -2.6875 -0.34375q-2.921875 -0.078125 -4.5 -0.296875zm13.765625 -18.515625l0 8.734375q1.453125 -1.59375 2.296875 -2.046875q0.84375 -0.453125 1.6875 -0.453125q1.015625 0 1.75 0.5625q0.734375 0.5625 1.078125 1.765625q0.25 0.828125 0.25 3.046875l0 4.21875q0 1.125 0.1875 1.546875q0.125 0.3125 0.4375 0.5q0.3125 0.171875 1.140625 0.171875l0 0.46875l-5.859375 0l0 -0.46875l0.28125 0q0.828125 0 1.15625 -0.25q0.328125 -0.25 0.453125 -0.75q0.046875 -0.203125 0.046875 -1.21875l0 -4.21875q0 -1.953125 -0.203125 -2.5625q-0.203125 -0.625 -0.65625 -0.921875q-0.4375 -0.3125 -1.0625 -0.3125q-0.640625 0 -1.328125 0.34375q-0.6875 0.34375 -1.65625 1.359375l0 6.3125q0 1.21875 0.140625 1.515625q0.140625 0.296875 0.5 0.5q0.375 0.203125 1.296875 0.203125l0 0.46875l-5.921875 0l0 -0.46875q0.796875 0 1.25 -0.25q0.265625 -0.125 0.421875 -0.484375q0.15625 -0.375 0.15625 -1.484375l0 -10.796875q0 -2.046875 -0.09375 -2.515625q-0.09375 -0.46875 -0.296875 -0.625q-0.203125 -0.171875 -0.546875 -0.171875q-0.265625 0 -0.890625 0.203125l-0.171875 -0.453125l3.5625 -1.46875l0.59375 0zm13.296875 2.671875l0 3.921875l2.78125 0l0 0.90625l-2.78125 0l0 7.734375q0 1.15625 0.328125 1.5625q0.328125 0.40625 0.859375 0.40625q0.421875 0 0.828125 -0.265625q0.40625 -0.265625 0.625 -0.796875l0.5 0q-0.453125 1.28125 -1.28125 1.921875q-0.828125 0.640625 -1.71875 0.640625q-0.59375 0 -1.171875 -0.328125q-0.578125 -0.328125 -0.859375 -0.9375q-0.265625 -0.625 -0.265625 -1.921875l0 -8.015625l-1.875 0l0 -0.421875q0.703125 -0.296875 1.453125 -0.96875q0.75 -0.6875 1.34375 -1.625q0.296875 -0.5 0.828125 -1.8125l0.40625 0zm11.64032 3.5625l0 4.0625l-0.421875 0q-0.5 -1.90625 -1.28125 -2.59375q-0.765625 -0.6875 -1.953125 -0.6875q-0.921875 0 -1.484375 0.484375q-0.546875 0.46875 -0.546875 1.0625q0 0.71875 0.40625 1.25q0.40625 0.53125 1.640625 1.125l1.90625 0.921875q2.640625 1.296875 2.640625 3.40625q0 1.625 -1.234375 2.625q-1.234375 0.984375 -2.75 0.984375q-1.09375 0 -2.5 -0.390625q-0.421875 -0.125 -0.703125 -0.125q-0.296875 0 -0.46875 0.34375l-0.421875 0l0 -4.265625l0.421875 0q0.359375 1.828125 1.390625 2.75q1.03125 0.921875 2.3125 0.921875q0.890625 0 1.453125 -0.515625q0.578125 -0.53125 0.578125 -1.28125q0 -0.890625 -0.640625 -1.5q-0.625 -0.625 -2.515625 -1.5625q-1.890625 -0.9375 -2.46875 -1.6875q-0.59375 -0.734375 -0.59375 -1.875q0 -1.46875 1.0 -2.453125q1.015625 -1.0 2.625 -1.0q0.703125 0 1.703125 0.3125q0.65625 0.1875 0.890625 0.1875q0.203125 0 0.3125 -0.09375q0.125 -0.09375 0.28125 -0.40625l0.421875 0z" fill-rule="nonzero"/></g></svg>